<?xml version="1.0" standalone="no"?>
<!DOCTYPE svg PUBLIC "-//W3C//DTD SVG 20010904//EN"
 "http://www.w3.org/TR/2001/REC-SVG-20010904/DTD/svg10.dtd">
<svg version="1.0" xmlns="http://www.w3.org/2000/svg"
 width="916.000000pt" height="916.000000pt" viewBox="0 0 916.000000 916.000000"
 preserveAspectRatio="xMidYMid meet">
<metadata>
Created by potrace 1.14, written by Peter Selinger 2001-2017
</metadata>
<g transform="translate(0.000000,916.000000) scale(0.100000,-0.100000)"
fill="#000000" stroke="none">
<path d="M5820 8694 c-30 -20 -82 -50 -115 -66 -33 -17 -98 -56 -145 -88 -47
-31 -114 -73 -150 -92 -100 -55 -359 -211 -464 -280 -28 -18 -231 -148 -291
-185 -39 -25 -198 -121 -335 -203 -8 -5 -85 -52 -170 -104 -190 -116 -194
-118 -360 -216 -74 -43 -148 -89 -165 -100 -16 -11 -79 -53 -140 -94 -60 -40
-154 -103 -209 -139 -54 -37 -102 -67 -106 -67 -4 0 -15 -9 -25 -20 -10 -11
-22 -20 -26 -20 -5 0 -28 -13 -51 -29 -24 -16 -104 -69 -178 -117 -304 -197
-356 -232 -374 -253 -11 -11 -23 -21 -27 -21 -4 0 -48 -27 -96 -60 -113 -78
-179 -121 -225 -149 -20 -12 -38 -25 -40 -29 -2 -4 -21 -17 -43 -29 -22 -12
-71 -45 -110 -73 -38 -28 -98 -70 -132 -93 -34 -23 -112 -77 -172 -120 -108
-76 -111 -79 -111 -116 0 -49 -25 -74 -34 -36 -4 14 -4 30 -1 35 16 26 -14 5
-52 -35 -44 -48 -67 -106 -78 -205 -4 -30 -11 -70 -17 -88 -7 -24 -7 -37 3
-48 8 -10 9 -18 3 -22 -6 -4 -14 -15 -17 -26 -6 -14 -3 -17 8 -12 20 7 19 -4
-2 -20 -15 -11 -16 -15 -4 -23 11 -7 11 -13 -2 -37 -19 -35 -28 -73 -32 -134
-2 -25 -6 -67 -10 -95 -12 -96 -14 -90 29 -86 43 3 62 -14 43 -38 -10 -12 -8
-14 10 -9 29 8 46 -13 48 -59 1 -19 8 -38 14 -42 6 -4 9 -15 5 -25 -6 -15 -7
-15 -18 0 -11 15 -14 13 -24 -12 -6 -16 -14 -41 -18 -56 -4 -18 -25 -39 -62
-65 -32 -21 -62 -45 -69 -53 -17 -21 -16 -40 2 -40 21 0 19 -13 -6 -28 -19
-12 -21 -21 -17 -98 4 -75 7 -87 32 -113 25 -26 28 -34 22 -78 -12 -98 -11
-188 2 -186 7 2 12 -2 12 -7 0 -6 -6 -10 -13 -10 -13 0 -34 -130 -43 -265 -2
-38 -7 -90 -10 -115 -4 -25 -8 -88 -9 -140 -4 -131 -6 -157 -61 -670 -8 -80
-19 -174 -25 -210 -6 -36 -12 -81 -14 -100 -6 -51 -42 -290 -49 -325 -4 -16
-8 -52 -10 -80 -2 -27 -9 -77 -15 -110 -6 -33 -14 -88 -16 -122 -3 -35 -10
-74 -15 -89 -14 -35 -12 -74 3 -74 6 0 4 -5 -5 -11 -13 -7 -18 -23 -19 -62 0
-29 -7 -113 -15 -187 -24 -207 -21 -222 34 -233 15 -3 34 -8 43 -12 20 -7 69
40 69 66 0 9 7 36 16 60 8 24 17 63 19 86 3 23 14 75 25 115 25 89 25 88 0 88
-11 0 -20 6 -20 13 0 21 12 28 26 16 10 -8 14 2 19 45 4 31 4 67 1 82 -5 17
-1 35 8 50 12 17 14 39 10 88 -3 36 -2 71 3 78 8 14 14 75 13 145 0 23 5 45
11 49 7 4 8 9 1 13 -7 4 -5 35 5 90 7 46 12 86 9 88 -3 3 -1 14 4 24 6 9 12
46 15 81 3 35 8 83 11 108 3 25 8 60 10 79 3 19 8 39 12 45 4 6 8 45 8 86 1
41 4 82 7 90 11 27 27 133 27 171 0 21 4 40 8 43 5 3 9 41 10 85 1 71 35 302
47 321 2 4 9 58 15 121 6 63 17 148 24 189 8 41 20 122 26 180 15 141 30 242
39 260 10 18 195 43 254 34 23 -4 43 -1 52 6 11 9 19 9 28 1 10 -7 17 -7 24 0
6 6 16 8 22 4 13 -8 252 -10 477 -5 83 1 156 0 161 -3 6 -4 32 -3 57 2 26 5
48 5 51 2 2 -4 19 -6 37 -5 18 2 83 5 143 8 153 7 172 17 120 66 -22 21 -25
32 -25 91 0 73 -14 96 -52 86 -33 -9 -48 10 -48 60 0 27 -4 42 -10 38 -5 -3
-10 -26 -10 -49 l0 -43 -45 -1 c-36 -1 -45 2 -47 16 0 9 -2 22 -3 27 -2 6 -3
25 -4 43 -2 58 -21 34 -21 -28 l0 -60 -37 -2 c-21 -1 -54 -3 -73 -4 -126 -10
-164 -7 -171 12 -6 18 -7 18 -14 2 -5 -14 -19 -18 -55 -18 -42 0 -49 3 -53 23
-4 21 -4 21 -6 1 -1 -20 -6 -21 -97 -20 -71 2 -98 6 -104 16 -8 13 -10 12 -10
-2 0 -21 7 -20 -102 -23 -77 -3 -88 -1 -88 13 -1 15 -2 15 -11 0 -12 -21 -89
-26 -89 -6 0 9 -3 9 -12 0 -7 -7 -31 -12 -54 -12 -39 0 -41 1 -38 28 4 26 3
26 -4 2 -7 -22 -14 -25 -51 -25 l-43 0 -3 42 c-2 24 0 45 4 48 5 2 7 17 5 32
-2 16 -1 20 2 10 4 -13 15 -17 42 -16 20 0 138 0 262 0 124 -1 239 1 255 3 17
2 33 -1 37 -7 5 -8 10 -8 20 0 7 6 29 10 48 8 33 -3 35 -5 33 -36 l-2 -34 11
38 c9 35 13 38 42 36 17 -2 36 -7 42 -11 7 -5 47 -1 90 8 55 11 80 12 82 5 2
-6 8 -8 14 -5 6 4 33 8 61 10 41 3 58 10 86 37 49 45 86 67 114 67 13 0 49 5
80 11 52 11 57 14 57 39 0 15 3 30 6 33 4 4 22 51 39 104 50 150 84 243 112
303 14 30 43 96 65 145 22 50 68 149 102 220 35 72 66 140 70 153 7 21 6 22
-32 16 -22 -3 -48 -1 -59 4 -11 6 -24 7 -29 3 -14 -13 -83 -21 -90 -10 -3 5
-10 6 -16 3 -6 -4 -88 -8 -182 -10 -337 -7 -428 -14 -463 -36 -29 -17 -37 -18
-68 -7 -19 7 -35 16 -35 20 0 3 -53 4 -117 2 -65 -2 -205 -6 -312 -9 -107 -3
-197 -6 -200 -8 -3 -2 -19 -4 -34 -4 -15 0 -34 -7 -41 -17 -15 -21 -31 -14
-39 15 -3 12 0 20 7 20 7 0 21 9 31 20 10 11 24 20 32 20 7 0 13 4 13 8 0 7
104 81 153 109 12 7 42 30 67 51 88 75 250 191 484 347 131 87 244 168 253
181 8 14 25 24 38 24 12 0 37 11 56 24 19 13 92 61 163 107 71 46 145 96 164
112 19 15 38 27 43 27 8 0 49 27 107 69 17 14 32 31 32 39 0 8 6 12 15 8 9 -3
78 36 172 98 166 108 221 141 239 141 6 0 19 7 29 15 19 16 50 34 80 49 12 5
27 16 34 25 7 9 19 16 25 16 7 0 35 16 62 35 27 19 53 35 58 35 4 0 25 13 45
28 20 16 44 31 53 35 9 3 75 46 145 95 70 49 153 103 183 121 30 18 69 42 85
53 108 72 199 126 207 122 4 -3 8 -1 8 5 0 5 18 20 40 33 71 41 329 201 434
269 200 129 233 149 247 149 25 0 120 -110 207 -238 24 -37 59 -83 76 -102 18
-19 52 -62 76 -95 25 -33 72 -92 106 -131 34 -39 79 -93 100 -121 81 -104 239
-298 246 -301 5 -2 8 -9 8 -16 0 -7 14 -25 31 -42 17 -16 37 -41 43 -56 6 -14
33 -50 59 -80 58 -65 177 -218 242 -313 27 -38 51 -72 54 -75 5 -4 46 -55 157
-196 54 -68 98 -127 118 -159 11 -16 41 -55 68 -85 27 -30 77 -93 111 -140 52
-70 68 -85 91 -86 40 -1 58 -32 32 -54 -8 -6 -13 -17 -10 -24 3 -7 -1 -13 -8
-14 -25 -3 -273 -13 -293 -12 -11 1 -24 1 -30 0 -5 0 -276 -2 -602 -4 -596 -4
-693 -8 -693 -29 0 -15 44 -137 59 -165 6 -12 11 -29 11 -39 0 -10 7 -31 16
-48 9 -16 30 -68 47 -115 17 -47 39 -97 50 -112 11 -14 21 -43 22 -65 3 -32
24 -124 76 -327 5 -22 13 -44 17 -50 3 -6 8 -31 10 -56 7 -84 23 -106 106
-146 42 -20 76 -41 76 -45 0 -5 6 -9 14 -9 14 0 26 -29 26 -67 0 -12 5 -25 12
-29 8 -5 9 3 5 29 l-6 37 105 -2 c58 -1 107 -5 109 -9 3 -4 24 -3 47 3 23 5
54 6 68 2 14 -4 63 -9 110 -11 102 -5 94 -4 150 -4 25 0 52 0 60 -1 9 -1 28 2
42 5 23 6 27 4 22 -10 -5 -17 -5 -17 8 -2 11 14 17 15 31 4 9 -7 33 -11 52 -9
38 3 39 0 48 -74 4 -32 3 -32 -39 -30 -53 2 -59 5 -79 48 l-15 35 2 -35 c3
-34 2 -35 -32 -35 -27 0 -37 6 -47 25 l-13 25 0 -26 c0 -23 -6 -28 -36 -34
-41 -7 -50 -1 -57 35 -4 23 -4 22 -6 -5 -1 -30 -2 -30 -53 -28 -29 1 -74 2
-100 2 -40 1 -47 4 -51 24 l-4 22 -2 -22 c-1 -18 -7 -23 -28 -23 -36 0 -50 9
-62 40 l-10 25 0 -27 c-1 -24 -5 -28 -32 -28 -17 0 -37 7 -46 16 -11 11 -19
12 -26 5 -18 -18 -95 -13 -106 7 -8 13 -13 14 -19 4 -5 -7 -22 -14 -38 -15
-24 -2 -30 2 -32 23 -2 14 -8 29 -13 35 -6 6 -8 -4 -5 -28 5 -36 5 -37 -29
-37 -31 0 -35 3 -35 25 0 14 -3 25 -7 25 -5 0 -9 -35 -9 -77 -2 -93 -12 -143
-30 -150 -17 -6 -18 -33 -1 -53 15 -19 178 -25 189 -7 5 8 10 9 17 2 6 -6 29
-9 51 -7 31 3 40 8 40 22 0 28 18 34 22 8 4 -32 25 -34 367 -36 162 -2 298 -5
303 -8 4 -3 8 -1 8 3 0 14 497 8 513 -5 8 -7 17 -9 20 -6 3 4 17 4 30 1 21 -6
24 -15 35 -94 26 -188 37 -432 57 -1198 3 -121 21 -527 27 -610 1 -5 -2 -25
-6 -43 -5 -21 -4 -32 3 -32 6 0 11 -16 11 -35 0 -19 -4 -35 -8 -35 -5 0 -8
-21 -7 -47 2 -27 4 -82 5 -123 3 -86 9 -112 21 -104 5 3 9 0 9 -5 0 -6 -5 -11
-10 -11 -14 0 -1 -248 15 -282 9 -18 9 -30 2 -37 -7 -7 -7 -14 1 -24 8 -10 8
-17 1 -24 -8 -8 -7 -20 5 -44 11 -22 13 -36 6 -45 -22 -26 9 -613 31 -594 3 3
12 0 20 -7 17 -14 68 -11 77 4 4 6 17 13 30 17 12 4 20 11 17 16 -4 6 -13 96
-15 153 0 5 -6 5 -12 1 -10 -6 -9 -3 0 8 11 13 13 64 10 234 -4 189 -6 218
-21 229 -22 16 -21 28 3 50 16 15 20 31 20 90 0 52 -4 76 -15 85 -20 17 -20
89 0 97 14 5 15 30 11 187 -2 99 -1 223 3 273 3 51 3 93 -1 93 -5 0 -8 10 -8
23 0 18 2 19 10 7 15 -23 12 2 -4 32 -8 15 -11 30 -7 33 5 2 7 63 6 134 -2
102 -6 136 -19 156 -15 23 -15 25 0 25 13 0 15 6 10 32 -3 18 -12 36 -19 40
-9 6 -9 8 1 8 19 0 12 151 -7 174 -11 13 -11 19 -1 31 7 8 10 21 7 30 -4 8 -2
17 2 20 13 8 -1 99 -17 111 -13 9 -13 12 2 17 15 6 17 30 17 214 1 701 3 793
15 793 7 0 14 -5 16 -12 8 -22 46 76 53 135 5 48 4 57 -9 57 -20 0 -21 16 -2
23 11 4 15 22 14 62 -1 31 3 60 8 63 6 4 9 30 8 57 -2 69 -3 72 -14 55 -6 -9
-10 -10 -10 -3 0 6 -3 20 -7 30 -6 16 -5 17 12 3 17 -14 18 -13 12 35 -15 112
-16 124 -9 129 4 2 7 35 6 73 -1 37 -2 105 -3 150 -1 60 -5 86 -17 97 -10 11
-11 16 -3 16 9 0 10 16 5 63 -4 34 -9 98 -12 142 -2 44 -8 103 -13 130 -5 28
-9 64 -10 80 -3 73 -48 139 -66 97 -5 -9 -7 -27 -6 -39 2 -18 -3 -23 -23 -23
-14 0 -28 5 -31 10 -5 8 -11 8 -19 1 -15 -13 -27 -4 -20 14 3 7 1 16 -5 20 -6
3 -11 15 -11 26 0 13 -6 19 -17 17 -12 -2 -17 2 -14 12 11 42 12 70 3 70 -6 0
-18 7 -26 16 -9 8 -16 11 -16 4 0 -7 -40 -9 -132 -5 -111 4 -135 8 -146 23 -7
9 -35 44 -62 77 -71 86 -169 211 -215 275 -22 30 -60 81 -85 112 -39 50 -45
54 -56 40 -17 -23 -31 -6 -16 18 10 16 7 23 -19 47 -17 15 -37 40 -44 54 -12
22 -55 78 -140 181 -7 9 -22 29 -32 45 -21 33 -125 170 -150 198 -10 10 -48
60 -85 110 -37 49 -85 110 -106 135 -22 25 -63 77 -92 115 -29 39 -55 72 -59
75 -6 5 -148 168 -246 284 -49 56 -88 106 -123 154 -27 38 -144 191 -179 236
-18 23 -50 66 -70 96 -21 30 -41 57 -45 58 -5 2 -8 8 -8 13 0 11 137 102 210
139 30 15 81 47 112 70 l57 42 -21 29 c-12 16 -22 29 -23 29 0 0 -25 -16 -55
-36z m-1583 -1026 c-3 -8 -6 -5 -6 6 -1 11 2 17 5 13 3 -3 4 -12 1 -19z m2873
-1693 c10 -12 10 -18 0 -31 -12 -13 -15 -13 -28 0 -15 15 -10 46 6 46 5 0 15
-7 22 -15z m-90 -10 c-8 -9 -9 -15 -2 -15 6 0 14 5 18 11 10 16 28 -6 21 -25
-4 -9 -18 -16 -32 -16 -33 0 -45 28 -20 46 25 18 30 18 15 -1z m-696 -14 c3
-5 -1 -11 -9 -15 -15 -6 -29 7 -18 18 9 9 21 8 27 -3z m-3479 -41 c-3 -5 -10
-10 -16 -10 -5 0 -9 5 -9 10 0 6 7 10 16 10 8 0 12 -4 9 -10z m-235 -11 c0
-16 -56 -69 -74 -69 -19 0 -28 14 -21 32 12 31 95 64 95 37z m5095 1 c3 -5 1
-10 -4 -10 -6 0 -11 5 -11 10 0 6 2 10 4 10 3 0 8 -4 11 -10z m-5885 -10 c0
-5 -4 -10 -10 -10 -5 0 -10 5 -10 10 0 6 5 10 10 10 6 0 10 -4 10 -10z m605
-20 c3 -5 1 -10 -4 -10 -6 0 -11 5 -11 10 0 6 2 10 4 10 3 0 8 -4 11 -10z
m576 -3 c-1 -12 -15 -9 -19 4 -3 6 1 10 8 8 6 -3 11 -8 11 -12z m4300 0 c-1
-12 -15 -9 -19 4 -3 6 1 10 8 8 6 -3 11 -8 11 -12z m-4567 -43 c10 -26 7 -34
-13 -34 -14 0 -17 6 -13 25 5 28 17 33 26 9z m4571 -9 c0 -14 -8 -21 -27 -23
-22 -3 -28 1 -28 16 0 25 10 33 35 30 12 -2 20 -10 20 -23z m355 15 c0 -5 -4
-10 -10 -10 -5 0 -10 5 -10 10 0 6 5 10 10 10 6 0 10 -4 10 -10z m-4560 -39
c0 -5 -7 -11 -15 -15 -15 -5 -20 5 -8 17 9 10 23 9 23 -2z m-1095 -30 c-9 -16
-25 -3 -18 15 4 10 9 12 15 6 6 -6 7 -15 3 -21z m931 -8 c-11 -11 -19 6 -11
24 8 17 8 17 12 0 3 -10 2 -21 -1 -24z m-1046 -3 c0 -5 -4 -10 -10 -10 -5 0
-10 5 -10 10 0 6 5 10 10 10 6 0 10 -4 10 -10z m194 -12 c-6 -10 -5 -10 8 0 9
7 32 10 59 8 24 -3 47 -5 52 -5 4 -1 7 -9 7 -20 0 -26 -26 -45 -47 -35 -10 4
-23 8 -28 9 -6 0 -21 8 -34 17 -13 10 -28 15 -33 12 -15 -10 -8 -33 12 -39 24
-8 27 -22 4 -22 -9 0 -23 11 -31 24 -14 21 -14 25 2 43 20 22 41 27 29 8z
m356 2 c0 -5 -7 -10 -16 -10 -8 0 -12 5 -9 10 3 6 10 10 16 10 5 0 9 -4 9 -10z
m4560 -35 c0 -8 -7 -15 -15 -15 -8 0 -15 7 -15 15 0 8 7 15 15 15 8 0 15 -7
15 -15z m-5173 -32 c4 -11 -26 -27 -35 -19 -2 3 -2 12 2 21 6 18 27 16 33 -2z
m423 13 c0 -3 -4 -8 -10 -11 -5 -3 -10 -1 -10 4 0 6 5 11 10 11 6 0 10 -2 10
-4z m4635 -16 c3 -5 1 -10 -4 -10 -6 0 -11 5 -11 10 0 6 2 10 4 10 3 0 8 -4
11 -10z m-4234 -33 c-13 -13 -26 -3 -16 12 3 6 11 8 17 5 6 -4 6 -10 -1 -17z
m3679 -41 c0 -3 -4 -8 -10 -11 -5 -3 -10 -1 -10 4 0 6 5 11 10 11 6 0 10 -2
10 -4z m-3780 -16 c0 -5 -7 -10 -16 -10 -8 0 -12 5 -9 10 3 6 10 10 16 10 5 0
9 -4 9 -10z m143 -2 c7 -21 -4 -38 -23 -38 -25 0 -35 18 -20 35 15 18 37 19
43 3z m-543 -46 c0 -37 -61 -55 -68 -21 -5 27 26 51 49 39 10 -6 19 -14 19
-18z m819 -29 c-15 -18 -34 -1 -25 22 5 14 9 15 21 5 12 -10 13 -16 4 -27z
m-1009 -23 c-20 -12 -33 -1 -19 16 9 11 15 12 23 4 8 -8 7 -13 -4 -20z m4660
20 c0 -5 -4 -10 -10 -10 -5 0 -10 5 -10 10 0 6 5 10 10 10 6 0 10 -4 10 -10z
m860 -20 c0 -5 -4 -10 -10 -10 -5 0 -10 5 -10 10 0 6 5 10 10 10 6 0 10 -4 10
-10z m-473 -16 c8 -20 -17 -36 -34 -22 -10 8 -10 14 -2 24 15 18 28 18 36 -2z
m-5467 -7 c0 -8 -3 -17 -7 -20 -9 -9 -34 13 -27 24 8 14 34 11 34 -4z m666 5
c20 -14 22 -38 5 -61 -15 -19 -23 -22 -49 -16 -21 4 -32 13 -32 23 1 21 20 47
40 55 21 8 24 8 36 -1z m5414 -28 c5 -13 14 -24 20 -24 14 0 13 -50 -2 -83 -8
-17 -21 -27 -35 -27 -12 0 -25 -4 -28 -10 -11 -18 -34 -10 -70 25 -43 43 -45
76 -8 115 21 23 35 28 70 28 37 0 46 -3 53 -24z m-5220 -4 c0 -5 -5 -10 -11
-10 -5 0 -7 5 -4 10 3 6 8 10 11 10 2 0 4 -4 4 -10z m4708 -4 c-10 -7 -18 -19
-18 -26 0 -7 -3 -11 -6 -7 -11 11 7 47 24 47 16 -1 16 -2 0 -14z m-4818 -6 c0
-5 -5 -10 -11 -10 -5 0 -7 5 -4 10 3 6 8 10 11 10 2 0 4 -4 4 -10z m280 1 c0
-14 -18 -23 -30 -16 -6 4 -8 11 -5 16 8 12 35 12 35 0z m4210 -6 c0 -8 -4 -15
-10 -15 -5 0 -10 7 -10 15 0 8 5 15 10 15 6 0 10 -7 10 -15z m-90 -15 c0 -5
-4 -10 -10 -10 -5 0 -10 5 -10 10 0 6 5 10 10 10 6 0 10 -4 10 -10z m-74 -37
c-11 -11 -19 6 -11 24 8 17 8 17 12 0 3 -10 2 -21 -1 -24z m454 17 c0 -5 -2
-10 -4 -10 -3 0 -8 5 -11 10 -3 6 -1 10 4 10 6 0 11 -4 11 -10z m-5260 -20 c0
-15 -7 -20 -25 -20 -27 0 -32 9 -13 28 18 18 38 14 38 -8z m4683 -36 c-3 -8
-12 -14 -19 -14 -18 0 -28 24 -20 46 6 15 8 15 26 -1 10 -9 16 -23 13 -31z
m307 16 c0 -5 -4 -10 -10 -10 -5 0 -10 5 -10 10 0 6 5 10 10 10 6 0 10 -4 10
-10z m-4260 -34 c0 -8 -5 -18 -11 -22 -14 -8 -33 11 -25 25 10 16 36 13 36 -3z
m-1115 -36 c3 -5 1 -10 -4 -10 -6 0 -11 5 -11 10 0 6 2 10 4 10 3 0 8 -4 11
-10z m233 -87 c-4 -43 -10 -116 -14 -163 -3 -47 -10 -101 -14 -120 -12 -49 -3
219 10 295 5 33 10 64 10 68 0 5 4 6 8 3 4 -2 4 -40 0 -83z m5964 65 c-7 -7
-12 -8 -12 -2 0 14 12 26 19 19 2 -3 -1 -11 -7 -17z m-5802 2 c0 -5 -4 -10
-10 -10 -5 0 -10 5 -10 10 0 6 5 10 10 10 6 0 10 -4 10 -10z m780 0 c0 -5 -4
-10 -10 -10 -5 0 -10 5 -10 10 0 6 5 10 10 10 6 0 10 -4 10 -10z m5044 -217
c0 -92 -3 -178 -8 -191 -6 -17 -5 -22 5 -20 20 4 23 -46 5 -65 -20 -20 -20
-27 -1 -27 16 0 21 -29 5 -31 -46 -5 -55 -2 -61 21 -14 49 -10 58 26 64 19 4
35 12 35 18 0 5 -6 8 -14 5 -11 -4 -13 31 -13 204 0 134 4 206 10 200 5 -5 10
-85 11 -178z m-5774 147 c0 -5 -5 -10 -11 -10 -5 0 -7 5 -4 10 3 6 8 10 11 10
2 0 4 -4 4 -10z m507 -6 c8 -21 -13 -42 -28 -27 -13 13 -5 43 11 43 6 0 13 -7
17 -16z m141 4 c-3 -7 -13 -15 -24 -17 -16 -3 -17 -1 -5 13 16 19 34 21 29 4z
m5202 2 c11 -7 12 -12 3 -21 -13 -13 -33 -4 -33 17 0 16 9 18 30 4z m-5150
-10 c0 -5 -5 -10 -11 -10 -5 0 -7 5 -4 10 3 6 8 10 11 10 2 0 4 -4 4 -10z
m-1050 -25 c0 -7 5 -15 12 -17 12 -4 4 -38 -9 -38 -4 0 -16 12 -26 26 -15 20
-16 28 -7 39 14 17 30 11 30 -10z m810 10 c0 -8 -9 -15 -20 -15 -20 0 -26 11
-13 23 12 13 33 7 33 -8z m280 -15 c0 -5 -4 -10 -10 -10 -5 0 -10 5 -10 10 0
6 5 10 10 10 6 0 10 -4 10 -10z m-377 -54 c8 -20 -20 -43 -35 -28 -14 14 -3
42 16 42 7 0 16 -6 19 -14z m527 0 c0 -3 -4 -8 -10 -11 -5 -3 -10 -1 -10 4 0
6 5 11 10 11 6 0 10 -2 10 -4z m4790 -17 c0 -5 -4 -9 -10 -9 -5 0 -10 7 -10
16 0 8 5 12 10 9 6 -3 10 -10 10 -16z m-4760 1 c0 -5 -5 -10 -11 -10 -5 0 -7
5 -4 10 3 6 8 10 11 10 2 0 4 -4 4 -10z m-1180 -40 c0 -5 -5 -10 -11 -10 -5 0
-7 5 -4 10 3 6 8 10 11 10 2 0 4 -4 4 -10z m5579 -4 c9 -10 8 -16 -3 -26 -19
-15 -36 -5 -36 21 0 22 22 25 39 5z m675 -1 c3 -8 1 -15 -4 -15 -6 0 -10 7
-10 15 0 8 2 15 4 15 2 0 6 -7 10 -15z m82 -52 c-7 -17 -8 -17 -17 0 -12 21
-2 44 13 29 6 -6 8 -19 4 -29z m-6046 2 c0 -8 -9 -15 -20 -15 -20 0 -26 11
-13 23 12 13 33 7 33 -8z m670 -5 c0 -5 -5 -10 -11 -10 -5 0 -7 5 -4 10 3 6 8
10 11 10 2 0 4 -4 4 -10z m4131 -33 c-13 -13 -26 -3 -16 12 3 6 11 8 17 5 6
-4 6 -10 -1 -17z m-5200 -60 c-8 -8 -11 -7 -11 4 0 20 13 34 18 19 3 -7 -1
-17 -7 -23z m734 4 c0 -8 -8 -19 -17 -25 -22 -13 -41 3 -32 28 8 20 49 18 49
-3z m-370 -1 c3 -6 3 -19 0 -30 -7 -23 -43 -27 -51 -5 -12 29 35 61 51 35z
m5406 -3 c-1 -12 -15 -9 -19 4 -3 6 1 10 8 8 6 -3 11 -8 11 -12z m85 -42 c-13
-36 -41 -7 -31 32 l6 26 15 -22 c9 -12 13 -28 10 -36z m-5889 23 c-3 -8 -6 -5
-6 6 -1 11 2 17 5 13 3 -3 4 -12 1 -19z m5743 -28 c0 -5 -4 -10 -10 -10 -5 0
-10 5 -10 10 0 6 5 10 10 10 6 0 10 -4 10 -10z m-5770 -35 c-7 -9 -15 -13 -18
-10 -3 2 1 11 8 20 7 9 15 13 18 10 3 -2 -1 -11 -8 -20z m-30 11 c0 -3 -4 -8
-10 -11 -5 -3 -10 -1 -10 4 0 6 5 11 10 11 6 0 10 -2 10 -4z m5870 -18 c0 8 5
9 18 3 9 -5 24 -12 33 -15 12 -3 18 -19 20 -49 l4 -45 -35 2 c-31 2 -35 5 -35
29 -1 14 -4 29 -8 33 -4 4 -7 -7 -7 -25 0 -38 -13 -44 -65 -33 -37 7 -40 11
-46 47 l-6 40 -2 -43 c-1 -50 -19 -62 -56 -38 -20 13 -25 25 -25 57 l0 41 89
-6 c62 -4 92 -3 97 5 4 8 9 7 15 -2 7 -11 9 -11 9 -1z m264 6 c17 -7 41 -79
31 -95 -4 -5 -28 -9 -53 -9 -26 1 -68 -1 -94 -5 -45 -7 -48 -6 -58 19 -5 15
-10 40 -10 55 0 28 1 28 53 26 28 -2 59 -6 68 -10 10 -4 23 0 30 9 17 18 14
17 33 10z m-575 -152 c25 -50 31 -97 12 -97 -16 0 -53 99 -44 120 8 21 10 19
32 -23z m541 18 c0 -5 -7 -10 -15 -10 -8 0 -15 5 -15 10 0 6 7 10 15 10 8 0
15 -4 15 -10z m-6130 -90 c0 -5 -5 -10 -11 -10 -5 0 -7 5 -4 10 3 6 8 10 11
10 2 0 4 -4 4 -10z m1411 -15 c1 -17 -18 -17 -25 0 -4 11 -1 15 10 13 8 -2 15
-7 15 -13z m-191 -24 c0 -12 -20 -25 -27 -18 -7 7 6 27 18 27 5 0 9 -4 9 -9z
m-1107 -68 c-7 -2 -19 -2 -25 0 -7 3 -2 5 12 5 14 0 19 -2 13 -5z m6317 -533
c0 -5 -4 -10 -10 -10 -5 0 -10 5 -10 10 0 6 5 10 10 10 6 0 10 -4 10 -10z
m-20 -466 c0 -8 -4 -12 -10 -9 -5 3 -10 10 -10 16 0 5 5 9 10 9 6 0 10 -7 10
-16z m-6460 -58 c0 -8 -5 -18 -11 -22 -14 -8 -33 11 -25 25 10 16 36 13 36 -3z
m6389 -310 c8 -10 9 -16 1 -21 -13 -8 -30 3 -30 21 0 18 14 18 29 0z m51 -176
c0 -5 -4 -10 -10 -10 -5 0 -10 5 -10 10 0 6 5 10 10 10 6 0 10 -4 10 -10z
m-6510 -54 c0 -16 -18 -31 -27 -22 -8 8 5 36 17 36 5 0 10 -6 10 -14z m6560
-52 c0 -14 -3 -14 -15 -4 -8 7 -15 14 -15 16 0 2 7 4 15 4 8 0 15 -7 15 -16z
m-50 -55 c0 -5 -4 -9 -10 -9 -5 0 -10 7 -10 16 0 8 5 12 10 9 6 -3 10 -10 10
-16z m39 -318 c9 -16 8 -18 -9 -14 -11 3 -20 12 -20 19 0 20 18 17 29 -5z
m-79 -231 c8 -5 11 -12 8 -16 -10 -9 -38 3 -38 16 0 12 10 13 30 0z m13 -100
c-3 -11 -7 -20 -9 -20 -2 0 -4 9 -4 20 0 11 4 20 9 20 5 0 7 -9 4 -20z m-3
-81 c0 -5 -7 -9 -15 -9 -9 0 -15 9 -15 21 0 18 2 19 15 9 8 -7 15 -16 15 -21z
m10 -88 c0 -12 -20 -25 -27 -18 -7 7 6 27 18 27 5 0 9 -4 9 -9z m-23 -93 c-3
-8 -6 -5 -6 6 -1 11 2 17 5 13 3 -3 4 -12 1 -19z m93 -224 c0 -8 -4 -12 -10
-9 -5 3 -10 13 -10 21 0 8 5 12 10 9 6 -3 10 -13 10 -21z m30 -175 c0 -11 -4
-18 -10 -14 -5 3 -7 12 -3 20 7 21 13 19 13 -6z m-45 -49 c3 -5 1 -10 -4 -10
-6 0 -11 5 -11 10 0 6 2 10 4 10 3 0 8 -4 11 -10z"/>
<path d="M2155 5720 c-8 -12 20 -24 35 -15 6 3 8 11 5 16 -8 12 -32 12 -40 -1z"/>
<path d="M2152 5438 c-16 -16 -15 -35 0 -40 10 -4 38 32 38 48 0 9 -27 3 -38
-8z"/>
<path d="M7487 4754 c-4 -4 -7 -17 -7 -28 1 -19 1 -20 11 -3 11 19 8 43 -4 31z"/>
<path d="M4442 7428 c-37 -11 -60 -23 -58 -31 1 -6 1 -9 -1 -4 -9 15 -37 5
-102 -37 -41 -26 -77 -59 -92 -82 -13 -22 -31 -47 -40 -58 -23 -24 -45 -94
-59 -188 l-11 -78 51 -96 c29 -52 65 -109 81 -125 16 -16 29 -33 29 -37 0 -4
14 -15 30 -24 35 -20 39 -35 8 -40 -12 -2 -36 -23 -55 -51 -18 -26 -42 -56
-53 -67 -24 -24 -26 -40 -5 -41 60 -5 179 6 199 19 6 4 37 5 69 3 35 -2 63 2
72 9 12 10 15 10 15 0 0 -8 9 -10 26 -6 17 5 23 3 19 -4 -3 -6 3 -10 14 -10
12 0 21 7 21 15 0 19 19 19 26 0 4 -8 11 -12 18 -8 6 4 26 8 44 9 19 0 38 7
42 14 7 11 11 10 25 -3 19 -19 65 -23 65 -6 0 8 4 8 13 2 6 -6 22 -13 34 -15
26 -7 64 17 47 29 -6 5 -13 15 -16 24 -4 9 -21 37 -40 62 -26 35 -41 46 -70
51 -21 3 -38 10 -38 14 0 12 24 43 71 93 53 55 110 153 112 194 2 17 6 36 11
44 15 23 13 111 -3 176 -34 141 -190 278 -294 258 -15 -3 -35 -2 -44 3 -31 13
-98 10 -161 -8z m338 -132 c0 -18 -21 -35 -36 -29 -17 6 -18 40 -1 46 17 6 37
-3 37 -17z m-135 -45 c3 -5 1 -12 -5 -16 -5 -3 -10 1 -10 9 0 18 6 21 15 7z
m-65 -31 c0 -5 -4 -10 -10 -10 -5 0 -10 5 -10 10 0 6 5 10 10 10 6 0 10 -4 10
-10z m110 -200 c0 -11 -7 -20 -15 -20 -15 0 -21 21 -8 33 12 13 23 7 23 -13z
m-94 -317 c-11 -11 -19 6 -11 24 8 17 8 17 12 0 3 -10 2 -21 -1 -24z m-76 -97
c0 -8 -4 -18 -10 -21 -5 -3 -10 3 -10 14 0 12 5 21 10 21 6 0 10 -6 10 -14z
m-175 -6 c5 -8 11 -7 21 1 8 6 14 9 14 5 0 -16 -3 -21 -11 -18 -5 1 -12 -5
-15 -13 -7 -17 -40 -20 -49 -5 -10 16 2 40 19 40 8 0 18 -5 21 -10z m175 -65
c0 -8 -4 -15 -10 -15 -5 0 -10 7 -10 15 0 8 5 15 10 15 6 0 10 -7 10 -15z"/>
<path d="M1365 5013 c-18 -12 -17 -13 13 -10 39 4 49 13 24 19 -10 3 -27 -1
-37 -9z"/>
<path d="M2627 4813 c-4 -3 -7 -24 -7 -46 0 -51 11 -41 15 12 3 43 3 45 -8 34z"/>
<path d="M6115 4810 c-3 -5 -1 -10 4 -10 6 0 11 5 11 10 0 6 -2 10 -4 10 -3 0
-8 -4 -11 -10z"/>
<path d="M2220 4770 c0 -16 4 -30 8 -30 5 0 7 14 4 30 -2 17 -6 30 -8 30 -2 0
-4 -13 -4 -30z"/>
<path d="M2432 4775 c0 -16 2 -22 5 -12 2 9 2 23 0 30 -3 6 -5 -1 -5 -18z"/>
<path d="M6321 4784 c0 -11 3 -14 6 -6 3 7 2 16 -1 19 -3 4 -6 -2 -5 -13z"/>
<path d="M2521 4773 c-1 -28 8 -53 21 -53 7 0 7 4 0 13 -5 6 -12 23 -15 37 -4
22 -4 22 -6 3z"/>
<path d="M6520 4770 c0 -5 5 -10 10 -10 6 0 10 5 10 10 0 6 -4 10 -10 10 -5 0
-10 -4 -10 -10z"/>
<path d="M2021 4753 c-1 -12 4 -25 9 -28 12 -7 12 2 0 30 -8 19 -9 19 -9 -2z"/>
<path d="M6640 4710 c0 -5 5 -10 11 -10 5 0 7 5 4 10 -3 6 -8 10 -11 10 -2 0
-4 -4 -4 -10z"/>
<path d="M5545 4491 c-3 -5 -1 -12 5 -16 5 -3 10 1 10 9 0 18 -6 21 -15 7z"/>
<path d="M3377 4063 c-10 -9 -9 -23 2 -23 5 0 11 7 15 15 5 15 -5 20 -17 8z"/>
<path d="M3380 3991 c0 -10 4 -31 9 -47 5 -16 14 -48 21 -71 7 -24 17 -43 22
-43 11 0 10 48 -2 55 -5 3 -10 17 -10 30 0 13 -5 27 -11 30 -6 4 -7 19 -4 36
5 22 3 29 -9 29 -9 0 -16 -8 -16 -19z"/>
<path d="M5538 3808 c-10 -10 -18 -29 -18 -42 0 -35 -10 -55 -24 -50 -16 6
-41 -40 -33 -60 10 -26 26 -18 24 12 -1 18 3 26 11 24 14 -3 29 10 55 48 21
30 22 41 2 34 -13 -5 -14 -2 -5 21 13 34 10 37 -12 13z"/>
<path d="M3440 3804 c0 -9 5 -14 12 -12 18 6 21 28 4 28 -9 0 -16 -7 -16 -16z"/>
<path d="M3460 3765 c0 -14 40 -58 47 -52 2 2 -4 18 -13 35 -16 34 -34 42 -34
17z"/>
<path d="M5441 3667 c-1 -11 -10 -21 -21 -24 -11 -3 -20 -11 -20 -18 0 -7 -7
-18 -15 -25 -12 -10 -18 -10 -31 1 -13 10 -17 10 -25 -2 -4 -8 -6 -21 -4 -30
3 -9 -1 -22 -10 -29 -12 -10 -15 -10 -15 3 0 19 -32 31 -60 22 -26 -8 -25 -21
3 -30 20 -6 19 -8 -13 -15 -21 -5 -39 -5 -44 1 -14 13 -22 11 -39 -6 -13 -13
-16 -13 -27 0 -10 12 -9 15 4 15 25 0 11 17 -19 22 -28 6 -29 4 -15 -23 8 -15
7 -19 -5 -19 -8 0 -15 8 -15 18 -1 16 -1 16 -11 0 -5 -10 -19 -18 -29 -18 -23
0 -26 10 -8 28 8 8 9 12 1 12 -6 0 -13 -5 -15 -12 -2 -6 -20 -12 -39 -13 -19
-1 -44 -5 -57 -9 -19 -6 -25 -4 -29 13 -6 23 -23 29 -23 9 0 -13 -18 -17 -105
-18 -91 -2 -98 -1 -91 16 3 9 0 25 -8 36 -14 19 -15 18 -27 -15 -7 -20 -21
-38 -32 -41 -10 -2 -16 -9 -13 -14 3 -6 -1 -13 -10 -16 -12 -5 -15 -2 -10 10
4 11 -1 18 -14 21 -11 3 -20 9 -20 14 0 12 -37 11 -45 -1 -3 -5 -12 -10 -18
-10 -7 0 -6 4 3 11 11 8 7 9 -17 5 -19 -3 -33 -1 -33 4 0 16 -14 12 -38 -10
-12 -12 -22 -17 -22 -12 0 6 -19 6 -46 1 -25 -5 -50 -7 -54 -4 -5 3 -52 7
-106 10 -54 2 -100 8 -103 12 -3 5 -15 15 -26 23 -16 11 -17 11 -7 0 6 -8 12
-18 12 -22 0 -15 -195 -5 -196 10 -1 6 -3 15 -4 20 -1 4 -2 10 -1 15 2 12 -34
8 -56 -8 -19 -13 -22 -13 -29 3 -4 9 -6 22 -5 28 1 8 -14 11 -41 10 -24 -2
-47 3 -53 10 -13 16 -85 28 -85 15 0 -6 17 -20 38 -31 20 -11 50 -30 65 -43
24 -20 26 -25 13 -30 -9 -4 -23 -4 -31 -1 -8 4 -22 1 -30 -6 -10 -9 -19 -9
-27 -2 -15 12 -40 15 -132 13 -54 -1 -67 -4 -63 -15 4 -9 -3 -16 -16 -20 -26
-7 -35 0 -19 16 7 7 12 15 12 19 0 8 -92 -9 -101 -19 -19 -21 -37 -234 -44
-523 -3 -103 -13 -235 -21 -295 -9 -60 -20 -188 -24 -284 -4 -96 -12 -224 -19
-285 -25 -241 -32 -316 -27 -323 2 -4 -2 -30 -9 -57 -8 -33 -9 -58 -3 -74 5
-15 5 -44 -2 -77 -7 -35 -8 -65 -2 -87 7 -24 6 -41 -3 -58 -12 -22 -17 -60
-30 -219 -2 -30 -9 -86 -14 -125 -16 -107 -15 -115 13 -115 14 0 28 -5 32 -11
3 -6 16 -8 27 -5 12 3 27 0 34 -6 9 -7 13 -7 13 0 0 5 9 8 19 5 16 -4 20 3 26
58 5 38 14 68 23 75 17 13 28 139 12 149 -6 4 -4 17 5 35 18 36 19 50 2 50 -9
0 -12 13 -10 43 2 23 4 78 6 122 1 44 5 85 8 90 3 6 6 51 7 100 4 136 31 531
43 610 6 39 14 129 19 200 5 72 14 182 19 245 6 63 11 120 11 127 0 8 21 12
68 11 101 0 171 7 184 20 16 16 28 15 28 -3 0 -18 21 -20 38 -3 9 9 12 9 12
-1 0 -7 9 -11 23 -9 16 2 21 9 19 26 -2 12 2 22 7 22 12 0 14 -10 12 -50 -1
-14 3 -39 9 -55 7 -17 13 -48 15 -70 1 -22 12 -68 24 -102 11 -34 21 -69 21
-77 0 -7 11 -51 25 -97 35 -116 110 -399 145 -549 17 -69 36 -151 44 -182 l14
-58 -41 -22 c-59 -33 -81 -76 -82 -163 0 -65 4 -80 45 -162 39 -79 49 -93 75
-99 38 -9 95 -36 95 -45 0 -3 14 -12 30 -19 26 -11 90 -87 90 -108 0 -14 85
-92 102 -92 9 0 21 -6 25 -13 12 -19 148 -7 165 14 23 29 56 30 85 3 14 -13
34 -24 44 -24 10 0 20 -4 24 -9 3 -6 24 -8 47 -5 30 4 55 17 93 50 29 24 57
44 63 44 6 0 30 22 54 50 24 27 49 50 56 50 6 0 12 6 12 14 0 7 7 20 17 27 9
8 42 44 73 80 42 49 63 84 79 132 30 95 27 227 -5 227 -8 0 -14 9 -14 21 0 12
-8 23 -20 26 -11 3 -20 9 -20 14 0 5 -13 9 -28 9 -53 0 -61 16 -51 103 5 42
16 108 24 145 8 37 24 135 35 217 11 83 31 209 45 280 13 72 35 192 49 269 14
76 27 141 30 143 2 3 34 6 70 8 37 2 71 7 76 10 6 3 15 3 21 -1 14 -9 118 -11
113 -2 -2 4 0 9 6 13 6 3 13 -1 16 -9 3 -9 10 -13 15 -10 5 3 9 0 9 -5 0 -6 5
-11 10 -11 6 0 10 7 10 15 0 16 40 20 150 16 53 -2 56 -1 69 29 7 17 15 29 18
26 2 -2 -1 -14 -7 -26 -10 -19 -9 -21 7 -18 11 2 17 11 16 23 -7 54 -10 60
-39 63 -28 4 -44 17 -44 37 1 6 5 2 11 -8 6 -10 15 -14 22 -10 7 4 19 8 27 8
12 0 15 20 16 115 1 63 3 136 6 163 4 41 2 47 -12 42 -13 -4 -17 1 -17 25 0
35 1 35 21 14 15 -14 16 -13 16 13 0 15 -3 45 -6 66 -5 28 -11 36 -23 32 -9
-2 -28 3 -44 14 -22 14 -37 16 -75 10 -28 -4 -52 -3 -59 3 -7 6 -18 8 -25 5
-7 -2 -38 -1 -68 3 -30 4 -59 4 -63 0 -4 -3 -27 -4 -50 -1 -23 4 -63 6 -89 6
l-46 0 21 20 c12 12 28 21 36 20 18 0 75 89 68 107 -3 8 -6 6 -6 -5z m-791
-148 c0 -6 -4 -7 -10 -4 -5 3 -10 11 -10 16 0 6 5 7 10 4 6 -3 10 -11 10 -16z
m-450 -143 c0 -11 -19 -15 -25 -6 -3 5 1 10 9 10 9 0 16 -2 16 -4z m1530 -110
c0 -11 -19 -15 -25 -6 -3 5 1 10 9 10 9 0 16 -2 16 -4z m110 -6 c0 -5 -2 -10
-4 -10 -3 0 -8 5 -11 10 -3 6 -1 10 4 10 6 0 11 -4 11 -10z m-740 -49 c0 -6
-4 -13 -10 -16 -5 -3 -10 1 -10 9 0 9 5 16 10 16 6 0 10 -4 10 -9z m-744 -36
c11 -8 14 -15 7 -15 -7 0 -13 -4 -13 -10 0 -5 7 -7 15 -4 21 8 20 -24 -2 -48
-23 -26 -59 -23 -79 7 -17 26 -17 25 21 72 13 16 27 16 51 -2z m184 -70 c0 -8
-4 -15 -10 -15 -5 0 -10 7 -10 15 0 8 5 15 10 15 6 0 10 -7 10 -15z m477 -112
c-3 -3 -11 -2 -17 2 -8 5 -7 11 2 22 12 15 13 14 16 -1 2 -10 1 -20 -1 -23z
m620 11 c-3 -3 -12 -4 -19 -1 -8 3 -5 6 6 6 11 1 17 -2 13 -5z m-77 -14 c0 -5
-4 -10 -10 -10 -5 0 -10 5 -10 10 0 6 5 10 10 10 6 0 10 -4 10 -10z m-780 -4
c0 -3 -4 -8 -10 -11 -5 -3 -10 -1 -10 4 0 6 5 11 10 11 6 0 10 -2 10 -4z
m1000 -22 c0 -14 -21 -19 -33 -7 -9 9 13 34 24 27 5 -3 9 -12 9 -20z m-360
-14 c0 -5 -8 -10 -17 -10 -15 0 -16 2 -3 10 19 12 20 12 20 0z m-1530 -24 c0
-8 -4 -17 -9 -21 -12 -7 -24 12 -16 25 9 15 25 12 25 -4z m-520 -5 c17 -1 21
-4 13 -12 -6 -6 -32 -8 -71 -3 -69 7 -76 24 -9 19 23 -2 53 -4 67 -4z m930
-11 c0 -5 -2 -10 -4 -10 -3 0 -8 5 -11 10 -3 6 -1 10 4 10 6 0 11 -4 11 -10z
m326 -34 c22 -7 21 56 10 -626 -4 -234 -9 -457 -12 -496 -5 -72 -5 -72 28 -99
18 -15 26 -25 17 -22 -17 5 -24 -12 -44 -107 -5 -23 -8 -27 -16 -15 -5 7 -9
26 -9 42 0 22 -5 27 -24 27 -26 0 -48 -21 -44 -40 5 -22 -20 -22 -27 0 -5 16
-1 26 15 37 18 13 21 22 15 49 -4 26 -2 34 9 34 8 0 17 -6 20 -12 16 -36 -7
115 -24 157 -4 11 -13 58 -20 105 -7 47 -16 110 -22 140 -5 30 -11 69 -13 85
-1 17 -8 57 -14 90 -6 33 -18 109 -26 168 -8 60 -17 112 -20 117 -6 9 -36 235
-33 247 1 4 -1 23 -5 41 -4 17 -10 45 -13 61 l-5 30 119 -4 c66 -2 128 -6 138
-9z m-1306 -66 c0 -5 7 -7 15 -4 8 4 15 2 15 -4 0 -13 -52 -23 -64 -12 -4 4
-5 13 -2 19 9 14 36 15 36 1z m760 -80 c0 -5 -2 -10 -4 -10 -3 0 -8 5 -11 10
-3 6 -1 10 4 10 6 0 11 -4 11 -10z m980 -990 c0 -5 -4 -10 -9 -10 -6 0 -13 5
-16 10 -3 6 1 10 9 10 9 0 16 -4 16 -10z m-120 -152 c0 -13 -23 -5 -28 10 -2
7 2 10 12 6 9 -3 16 -11 16 -16z m-448 -62 c1 -10 -3 -21 -9 -23 -9 -3 -13 6
-13 28 0 34 15 31 22 -5z m188 9 c0 -8 -4 -17 -10 -20 -6 -4 -10 5 -10 20 0
15 4 24 10 20 6 -3 10 -12 10 -20z m57 9 c8 -20 -13 -42 -27 -28 -12 12 -3 44
11 44 5 0 12 -7 16 -16z m70 -28 c-4 -9 -11 -16 -17 -16 -15 0 -24 26 -16 47
6 15 8 15 23 1 9 -9 13 -24 10 -32z m-369 -3 c3 -23 -24 -56 -42 -50 -14 5 -8
59 8 69 17 11 31 4 34 -19z m450 4 c3 -14 -1 -18 -20 -15 -12 2 -24 11 -26 21
-3 14 1 18 20 15 12 -2 24 -11 26 -21z m44 -12 c0 -5 -5 -11 -10 -13 -5 -1 -9
4 -9 13 0 9 4 14 9 13 5 -2 10 -8 10 -13z m-602 -6 c0 -6 7 -9 15 -5 10 3 15
-1 15 -13 0 -28 -44 -22 -48 7 -2 12 1 22 7 22 6 0 11 -5 11 -11z m-79 -7 c11
-5 14 -13 10 -26 -7 -17 -9 -16 -24 8 -18 26 -15 30 14 18z m469 -124 c11 -12
20 -27 20 -34 0 -22 -17 -24 -35 -4 -10 11 -24 20 -30 20 -14 0 -27 25 -18 34
13 13 43 5 63 -16z m73 -28 c14 -23 15 -30 5 -30 -19 0 -38 21 -38 42 0 27 13
22 33 -12z m61 11 c21 -23 13 -43 -12 -34 -18 7 -41 32 -42 46 0 15 37 6 54
-12z m58 -13 c-12 -12 -25 -18 -29 -14 -4 4 3 16 16 27 31 25 41 15 13 -13z"/>
<path d="M4010 3638 c0 -19 2 -20 10 -8 13 19 13 30 0 30 -5 0 -10 -10 -10
-22z"/>
<path d="M4760 3644 c0 -8 5 -12 10 -9 6 4 8 11 5 16 -9 14 -15 11 -15 -7z"/>
<path d="M3912 3630 c0 -14 2 -19 5 -12 2 6 2 18 0 25 -3 6 -5 1 -5 -13z"/>
<path d="M4070 3630 c-8 -5 -11 -12 -7 -16 4 -4 13 -2 19 4 15 15 7 24 -12 12z"/>
<path d="M5206 3605 c-3 -8 -1 -15 3 -15 5 0 11 7 15 15 3 8 1 15 -3 15 -5 0
-11 -7 -15 -15z"/>
<path d="M5150 3599 c0 -5 5 -7 10 -4 6 3 10 8 10 11 0 2 -4 4 -10 4 -5 0 -10
-5 -10 -11z"/>
<path d="M4160 3590 c8 -5 22 -10 30 -10 13 0 13 1 0 10 -8 5 -22 10 -30 10
-13 0 -13 -1 0 -10z"/>
<path d="M4530 3570 c0 -5 5 -10 10 -10 6 0 10 5 10 10 0 6 -4 10 -10 10 -5 0
-10 -4 -10 -10z"/>
<path d="M4680 3570 c0 -5 5 -10 10 -10 6 0 10 5 10 10 0 6 -4 10 -10 10 -5 0
-10 -4 -10 -10z"/>
<path d="M4747 3573 c-4 -3 -7 -13 -7 -22 0 -11 3 -10 15 5 12 16 14 16 15 3
0 -20 31 -20 43 -1 12 19 0 27 -17 13 -10 -8 -16 -9 -21 -1 -7 12 -19 13 -28
3z"/>
<path d="M4921 3564 c0 -11 3 -14 6 -6 3 7 2 16 -1 19 -3 4 -6 -2 -5 -13z"/>
<path d="M4570 3560 c0 -5 5 -10 11 -10 5 0 7 5 4 10 -3 6 -8 10 -11 10 -2 0
-4 -4 -4 -10z"/>
<path d="M5690 2870 c-33 -5 -35 -7 -32 -40 8 -86 6 -1419 -2 -1452 -7 -30 -5
-43 9 -64 13 -21 14 -28 4 -34 -14 -10 -15 -303 -1 -355 8 -28 12 -30 66 -35
79 -7 86 -1 86 73 0 35 5 68 11 74 7 7 8 20 4 30 -4 10 -6 52 -4 93 1 41 2 86
1 100 -1 14 -1 50 0 80 2 120 -1 163 -12 170 -9 5 -9 9 -1 14 14 9 14 66 0 66
-8 0 -7 6 2 17 15 17 16 35 28 793 4 223 10 412 15 421 4 10 3 20 -3 24 -6 3
-11 1 -11 -4 0 -6 -4 -11 -9 -11 -5 0 -8 8 -7 18 1 14 -9 18 -54 22 -30 3 -71
3 -90 0z m70 -480 c0 -5 -4 -10 -10 -10 -5 0 -10 5 -10 10 0 6 5 10 10 10 6 0
10 -4 10 -10z m20 -104 c0 -3 -4 -8 -10 -11 -5 -3 -10 -1 -10 4 0 6 5 11 10
11 6 0 10 -2 10 -4z m-40 -558 c0 -50 -13 -64 -24 -25 -3 12 -6 42 -6 67 1 42
2 44 15 26 9 -11 15 -41 15 -68z m-10 -433 c0 -12 -20 -35 -31 -35 -12 0 -17
53 -5 66 9 10 13 10 24 -4 6 -8 12 -21 12 -27z"/>
<path d="M3902 1409 c-10 -16 -11 -28 -2 -55 15 -44 35 -45 26 -1 -4 17 -7 42
-8 55 0 27 0 27 -16 1z"/>
<path d="M3966 1273 c4 -15 17 -41 28 -58 12 -16 22 -32 23 -34 1 -1 6 0 12 3
12 8 -14 62 -34 70 -8 3 -15 12 -15 20 0 8 -5 18 -10 21 -7 4 -8 -3 -4 -22z"/>
<path d="M5097 1136 c-21 -20 -23 -25 -11 -30 23 -9 36 -7 29 4 -3 5 -1 19 5
30 14 26 9 25 -23 -4z"/>
<path d="M4081 1134 c0 -11 3 -14 6 -6 3 7 2 16 -1 19 -3 4 -6 -2 -5 -13z"/>
<path d="M4122 1123 c3 -13 12 -17 31 -16 27 2 38 -12 15 -19 -7 -3 -9 -12 -5
-22 5 -13 14 -16 40 -11 29 6 33 4 34 -16 2 -27 23 -50 30 -31 3 6 9 12 14 12
6 0 7 -5 4 -10 -9 -14 4 -50 18 -50 7 0 25 -17 41 -37 26 -32 30 -34 36 -17
10 26 1 44 -21 44 -10 0 -19 6 -19 13 0 7 -9 20 -20 30 -11 9 -20 24 -20 32 0
8 -4 15 -9 15 -5 0 -27 18 -49 40 -23 23 -51 41 -66 42 -14 1 -26 6 -26 10 0
4 -7 8 -16 8 -9 0 -14 -7 -12 -17z"/>
<path d="M5023 1065 c-19 -19 -38 -35 -42 -35 -3 0 -12 -9 -19 -20 -7 -12 -23
-25 -37 -30 -17 -7 -22 -14 -18 -29 3 -12 1 -21 -6 -21 -6 0 -11 10 -11 23 0
12 -4 17 -8 12 -4 -6 -28 -20 -54 -33 -27 -13 -48 -29 -48 -35 0 -7 -5 -4 -11
5 -5 10 -28 21 -51 24 -23 4 -49 15 -59 25 -21 21 -41 19 -68 -5 -13 -12 -38
-18 -75 -19 -31 -1 -56 -6 -56 -10 0 -5 -5 -5 -10 -2 -6 4 -17 1 -26 -5 -11
-10 -12 -16 -3 -26 15 -19 29 -18 29 2 0 14 3 14 16 3 9 -7 14 -22 11 -36 -3
-18 0 -23 12 -21 9 2 17 15 19 31 4 30 22 38 22 9 0 -26 11 -34 26 -21 10 8
15 5 20 -15 7 -31 23 -33 47 -6 9 11 23 20 31 20 9 0 12 -7 9 -20 -7 -27 13
-26 28 2 11 20 13 20 24 5 10 -14 14 -15 33 -2 11 8 27 12 36 9 11 -4 17 2 21
23 4 15 9 35 12 43 5 13 6 13 10 0 9 -29 26 -60 34 -60 5 0 11 17 15 38 4 20
9 31 11 25 6 -16 39 -17 48 -3 4 6 12 10 18 9 27 -3 35 2 41 29 12 49 31 82
43 77 9 -3 13 5 13 22 0 14 8 32 18 39 12 9 13 13 4 14 -8 0 -30 -16 -49 -35z
m-46 -110 c-4 -8 -12 -15 -19 -14 -10 0 -10 2 0 6 6 2 12 12 12 21 0 8 3 13 6
9 4 -3 4 -13 1 -22z"/>
<path d="M3062 971 c2 -7 7 -12 11 -12 12 1 9 15 -3 20 -7 2 -11 -2 -8 -8z"/>
<path d="M4537 813 c-12 -11 -8 -23 8 -23 8 0 15 7 15 15 0 16 -12 20 -23 8z"/>
</g>
</svg>
